<svg width="58" height="58" viewBox="0 0 58 58" fill="none" xmlns="http://www.w3.org/2000/svg">
<mask id="mask0_0_1657" style="mask-type:luminance" maskUnits="userSpaceOnUse" x="13" y="18" width="33" height="22">
<path d="M45.0426 18.6426H13.4779V39.3569H45.0426V18.6426Z" fill="white"/>
</mask>
<g mask="url(#mask0_0_1657)">
<path d="M30.6993 39.3572C19.9151 39.3572 13.7639 31.5814 13.5076 18.6221H18.8701C19.0476 28.1187 23.03 32.0997 26.1845 32.9705V18.6428H31.2713V26.8331C34.3865 26.4806 37.6591 22.7484 38.763 18.6428H43.8499C43.4411 20.7778 42.6172 22.8008 41.4296 24.5849C40.2423 26.369 38.7169 27.8757 36.9493 29.0103C38.9199 30.0381 40.661 31.4936 42.0577 33.2806C43.4544 35.0675 44.4749 37.1457 45.0524 39.3778H39.4532C38.9376 37.4354 37.8878 35.6965 36.4355 34.3794C34.9833 33.0625 33.1936 32.2261 31.2909 31.9756V39.3778L30.6993 39.3572Z" fill="white"/>
</g>
<path fill-rule="evenodd" clip-rule="evenodd" d="M29.2602 55.1C42.9885 55.1 54.1173 43.4147 54.1173 29C54.1173 14.5854 42.9885 2.9 29.2602 2.9C15.5321 2.9 4.40315 14.5854 4.40315 29C4.40315 43.4147 15.5321 55.1 29.2602 55.1ZM29.2602 58C44.5139 58 56.8792 45.0161 56.8792 29C56.8792 12.9837 44.5139 0 29.2602 0C14.0067 0 1.64124 12.9837 1.64124 29C1.64124 45.0161 14.0067 58 29.2602 58Z" fill="white"/>
</svg>
